<svg xmlns="http://www.w3.org/2000/svg" viewBox="0 0 48 48">
  <rect width="48" height="48" rx="9" fill="#111111"/>
  <path fill="#ffffff" d="M30.6832 30.01472Q30.327999999999996 28.42816 29.546559999999996 27.1968Q28.765119999999996 25.96544 27.474559999999997 25.26688Q26.183999999999997 24.56832 24.36064 24.56832H21.28224V23.62112H24.36064Q26.183999999999997 23.62112 27.474559999999997 22.98176Q28.765119999999996 22.3424 29.546559999999996 21.18208Q30.327999999999996 20.02176 30.6832 18.435200000000002H31.6304V30.01472ZM38.260799999999996 6.240000000000002V15.948800000000002H37.3136Q36.9584 13.415040000000001 35.91647999999999 11.425920000000003Q34.874559999999995 9.436800000000005 33.07487999999999 8.300160000000005Q31.275199999999998 7.163520000000005 28.623039999999996 7.163520000000005H23.389760000000003V40.836479999999995H28.10208V41.76H11.739200000000002V40.836479999999995H16.025280000000002V7.163520000000005H11.739200000000002V6.240000000000002Z"/>
</svg>
